; NON-PLATED HOLES START AT T1
; THROUGH (PLATED) HOLES START AT T100
M48
INCH
T1C0.157480
T100C0.035000
T101C0.039370
T102C0.040000
T103C0.038000
T104C0.098425
%
T1
X021534Y002187
T100
X013534Y011187
X013534Y015187
T101
X029178Y012384
X010534Y027187
X026969Y016884
X007534Y027187
X029969Y016884
X028969Y016884
X011534Y003187
X010534Y003187
X008534Y027187
X009534Y027187
X025969Y016884
X009534Y022187
X027800Y012384
X030969Y016884
X008534Y022187
X012534Y003187
X007534Y022187
X027969Y016884
X013534Y003187
X010534Y022187
T102
X018534Y018187
X018534Y020187
T103
X003534Y013187
X006534Y002187
X002534Y002187
X003534Y002187
X003534Y011187
X003534Y010187
X003534Y012187
X004534Y002187
X007534Y002187
X005534Y002187
X003534Y014187
T104
X005034Y027187
X032469Y011884
X024469Y016884
X013034Y022187
X013034Y027187
X024469Y011884
X032469Y016884
X005034Y022187
T00
M30
