G04 MADE WITH FRITZING*
G04 WWW.FRITZING.ORG*
G04 DOUBLE SIDED*
G04 HOLES PLATED*
G04 CONTOUR ON CENTER OF CONTOUR VECTOR*
%ASAXBY*%
%FSLAX23Y23*%
%MOIN*%
%OFA0B0*%
%SFA1.0B1.0*%
%ADD10C,0.078000*%
%ADD11C,0.075000*%
%ADD12C,0.080000*%
%ADD13C,0.070000*%
%ADD14C,0.138425*%
%ADD15C,0.086000*%
%ADD16C,0.076000*%
%ADD17C,0.066000*%
%ADD18R,0.079986X0.080000*%
%ADD19R,0.061024X0.023622*%
%ADD20R,0.066000X0.066000*%
%ADD21C,0.024000*%
%LNCOPPER1*%
G90*
G70*
G54D10*
X353Y1419D03*
X353Y1319D03*
X353Y1219D03*
X353Y1119D03*
X353Y1019D03*
G54D11*
X1353Y1119D03*
X1353Y1519D03*
G54D12*
X1853Y1819D03*
X1853Y2019D03*
G54D13*
X2797Y1688D03*
G54D14*
X2447Y1688D03*
G54D13*
X2597Y1688D03*
G54D14*
X2447Y1188D03*
G54D15*
X2780Y1238D03*
G54D13*
X2697Y1688D03*
G54D14*
X3247Y1188D03*
X3247Y1688D03*
G54D13*
X3097Y1688D03*
G54D15*
X2918Y1238D03*
G54D13*
X2997Y1688D03*
X2897Y1688D03*
G54D16*
X1053Y2219D03*
X753Y2719D03*
G54D14*
X1303Y2719D03*
G54D16*
X953Y2719D03*
X853Y2219D03*
G54D14*
X1303Y2219D03*
G54D16*
X1053Y2719D03*
X853Y2719D03*
X753Y2219D03*
X953Y2219D03*
G54D14*
X503Y2719D03*
X503Y2219D03*
G54D17*
X1353Y319D03*
X1053Y319D03*
X1153Y319D03*
X1253Y319D03*
G54D10*
X753Y219D03*
X653Y219D03*
X553Y219D03*
X453Y219D03*
X353Y219D03*
X253Y219D03*
G54D18*
X1853Y1819D03*
G54D19*
X2551Y1498D03*
X2551Y1458D03*
X2551Y1419D03*
X2551Y1379D03*
X3141Y1379D03*
X3141Y1419D03*
X3141Y1458D03*
X3141Y1498D03*
X755Y2449D03*
X955Y2449D03*
X755Y2488D03*
X755Y2528D03*
X1155Y2410D03*
X955Y2528D03*
X1155Y2449D03*
X1155Y2488D03*
X1155Y2528D03*
X1355Y2410D03*
X955Y2488D03*
X1355Y2449D03*
X1355Y2488D03*
X1355Y2528D03*
X555Y2410D03*
X555Y2449D03*
X555Y2488D03*
X555Y2528D03*
X955Y2410D03*
X755Y2410D03*
G54D20*
X1053Y319D03*
G54D21*
X353Y1238D02*
X353Y1300D01*
D02*
X353Y1338D02*
X353Y1400D01*
D02*
X371Y1426D02*
X1835Y2011D01*
D02*
X472Y219D02*
X534Y219D01*
D02*
X572Y219D02*
X634Y219D01*
D02*
X672Y219D02*
X734Y219D01*
D02*
X1035Y313D02*
X771Y225D01*
D02*
X751Y819D02*
X1141Y334D01*
D02*
X370Y1010D02*
X751Y819D01*
D02*
X353Y1038D02*
X353Y1100D01*
D02*
X353Y1138D02*
X353Y1200D01*
D02*
X1836Y1808D02*
X1368Y1528D01*
D02*
X1351Y1101D02*
X1256Y338D01*
D02*
X372Y219D02*
X434Y219D01*
D02*
X272Y219D02*
X334Y219D01*
D02*
X2056Y2021D02*
X1868Y1833D01*
D02*
X2250Y2021D02*
X2056Y2021D01*
D02*
X2583Y1702D02*
X2250Y2021D01*
D02*
X2153Y2221D02*
X2354Y2221D01*
D02*
X2354Y2221D02*
X2686Y1705D01*
D02*
X1870Y2030D02*
X2153Y2221D01*
G04 End of Copper1*
M02*