; NON-PLATED HOLES START AT T1
; THROUGH (PLATED) HOLES START AT T100
M48
INCH
T1C0.157480
T100C0.038000
T101C0.035000
T102C0.039370
T103C0.040000
T104C0.036000
T105C0.098425
%
T1
X041217Y002128
T100
X019217Y002128
X011217Y002128
X016217Y014128
X015217Y002128
X018217Y002128
X016217Y013128
X016217Y009128
X016217Y002128
X017217Y002128
X020217Y002128
X016217Y011128
X016217Y010128
X016217Y012128
X012217Y002128
T101
X026217Y011128
X026217Y015128
T102
X038652Y016825
X023217Y027128
X026217Y003128
X023217Y022128
X043652Y016825
X039652Y016825
X040652Y016825
X025217Y003128
X040483Y012325
X022217Y022128
X022217Y027128
X021217Y022128
X021217Y027128
X020217Y027128
X020217Y022128
X041652Y016825
X024217Y003128
X042652Y016825
X023217Y003128
X041861Y012325
T103
X031217Y020128
X031217Y018128
T104
X002217Y013128
X002217Y016128
X008217Y019128
X002217Y020128
X008217Y012128
X002217Y021128
X008217Y017128
X002217Y014128
X008217Y011128
X008217Y024128
X008217Y010128
X002217Y022128
X002217Y015128
X008217Y023128
X008217Y018128
X002217Y024128
X002217Y011128
X008217Y022128
X002217Y010128
X002217Y023128
X008217Y015128
X002217Y018128
X008217Y016128
X008217Y013128
X002217Y012128
X008217Y020128
X002217Y019128
X008217Y014128
X002217Y017128
X008217Y021128
T105
X045152Y011825
X037152Y011825
X025717Y022128
X025717Y027128
X045152Y016825
X037152Y016825
X017717Y027128
X017717Y022128
T00
M30
