G04 MADE WITH FRITZING*
G04 WWW.FRITZING.ORG*
G04 DOUBLE SIDED*
G04 HOLES PLATED*
G04 CONTOUR ON CENTER OF CONTOUR VECTOR*
%ASAXBY*%
%FSLAX23Y23*%
%MOIN*%
%OFA0B0*%
%SFA1.0B1.0*%
%ADD10C,0.070000*%
%ADD11C,0.078000*%
%ADD12C,0.075000*%
%ADD13C,0.080000*%
%ADD14C,0.138425*%
%ADD15C,0.086000*%
%ADD16C,0.076000*%
%ADD17C,0.066000*%
%ADD18R,0.069972X0.070000*%
%ADD19R,0.079986X0.080000*%
%ADD20R,0.061024X0.023622*%
%ADD21R,0.066000X0.066000*%
%ADD22C,0.024000*%
%LNCOPPER1*%
G90*
G70*
G54D10*
X222Y2413D03*
X222Y2313D03*
X222Y2213D03*
X222Y2113D03*
X222Y2013D03*
X222Y1913D03*
X222Y1813D03*
X222Y1713D03*
X222Y1613D03*
X222Y1513D03*
X222Y1413D03*
X222Y1313D03*
X222Y1213D03*
X222Y1113D03*
X222Y1013D03*
X822Y2413D03*
X822Y2313D03*
X822Y2213D03*
X822Y2113D03*
X822Y2013D03*
X822Y1913D03*
X822Y1813D03*
X822Y1713D03*
X822Y1613D03*
X822Y1513D03*
X822Y1413D03*
X822Y1313D03*
X822Y1213D03*
X822Y1113D03*
X822Y1013D03*
G54D11*
X1222Y213D03*
X1122Y213D03*
X2022Y213D03*
X1922Y213D03*
X1822Y213D03*
X1722Y213D03*
X1622Y213D03*
X1522Y213D03*
G54D12*
X2622Y1113D03*
X2622Y1513D03*
G54D13*
X3122Y1813D03*
X3122Y2013D03*
G54D10*
X4065Y1683D03*
G54D14*
X3715Y1683D03*
G54D10*
X3865Y1683D03*
G54D14*
X3715Y1183D03*
G54D15*
X4048Y1233D03*
G54D10*
X3965Y1683D03*
G54D14*
X4515Y1183D03*
X4515Y1683D03*
G54D10*
X4365Y1683D03*
G54D15*
X4186Y1233D03*
G54D10*
X4265Y1683D03*
X4165Y1683D03*
G54D16*
X2322Y2213D03*
X2022Y2713D03*
G54D14*
X2572Y2713D03*
G54D16*
X2222Y2713D03*
X2122Y2213D03*
G54D14*
X2572Y2213D03*
G54D16*
X2322Y2713D03*
X2122Y2713D03*
X2022Y2213D03*
X2222Y2213D03*
G54D14*
X1772Y2713D03*
X1772Y2213D03*
G54D17*
X2622Y313D03*
X2322Y313D03*
X2422Y313D03*
X2522Y313D03*
G54D11*
X1622Y1413D03*
X1622Y1313D03*
X1622Y1213D03*
X1622Y1113D03*
X1622Y1013D03*
X1622Y913D03*
G54D18*
X222Y2413D03*
G54D19*
X3122Y1813D03*
G54D20*
X3819Y1492D03*
X3819Y1452D03*
X3819Y1413D03*
X3819Y1373D03*
X4409Y1373D03*
X4409Y1413D03*
X4409Y1452D03*
X4409Y1492D03*
X2023Y2443D03*
X2223Y2443D03*
X2023Y2483D03*
X2023Y2522D03*
X2423Y2404D03*
X2223Y2522D03*
X2423Y2443D03*
X2423Y2483D03*
X2423Y2522D03*
X2623Y2404D03*
X2223Y2483D03*
X2623Y2443D03*
X2623Y2483D03*
X2623Y2522D03*
X1823Y2404D03*
X1823Y2443D03*
X1823Y2483D03*
X1823Y2522D03*
X2223Y2404D03*
X2023Y2404D03*
G54D21*
X2322Y313D03*
G54D22*
X1421Y1816D02*
X836Y2301D01*
D02*
X1321Y1615D02*
X835Y2100D01*
D02*
X1519Y232D02*
X1321Y1615D01*
D02*
X1613Y1430D02*
X1421Y1816D01*
D02*
X424Y1013D02*
X232Y1298D01*
D02*
X1109Y227D02*
X424Y1013D01*
D02*
X723Y813D02*
X723Y1215D01*
D02*
X723Y1215D02*
X809Y1300D01*
D02*
X1210Y227D02*
X723Y813D01*
D02*
X3422Y2215D02*
X3622Y2215D01*
D02*
X3622Y2215D02*
X3955Y1699D01*
D02*
X3138Y2024D02*
X3422Y2215D01*
D02*
X3325Y2015D02*
X3136Y1827D01*
D02*
X3519Y2015D02*
X3325Y2015D01*
D02*
X3851Y1696D02*
X3519Y2015D01*
D02*
X1541Y213D02*
X1603Y213D01*
D02*
X1641Y213D02*
X1703Y213D01*
D02*
X1622Y1232D02*
X1622Y1294D01*
D02*
X1622Y1332D02*
X1622Y1394D01*
D02*
X1639Y1420D02*
X3103Y2005D01*
D02*
X1741Y213D02*
X1803Y213D01*
D02*
X1841Y213D02*
X1903Y213D01*
D02*
X1941Y213D02*
X2003Y213D01*
D02*
X2303Y307D02*
X2040Y219D01*
D02*
X2019Y813D02*
X2409Y328D01*
D02*
X1639Y1004D02*
X2019Y813D01*
D02*
X1622Y1032D02*
X1622Y1094D01*
D02*
X1622Y1132D02*
X1622Y1194D01*
D02*
X3105Y1803D02*
X2637Y1522D01*
D02*
X2620Y1095D02*
X2524Y332D01*
D02*
X1622Y932D02*
X1622Y994D01*
G04 End of Copper1*
M02*