G04 MADE WITH FRITZING*
G04 WWW.FRITZING.ORG*
G04 DOUBLE SIDED*
G04 HOLES PLATED*
G04 CONTOUR ON CENTER OF CONTOUR VECTOR*
%ASAXBY*%
%FSLAX23Y23*%
%MOIN*%
%OFA0B0*%
%SFA1.0B1.0*%
%ADD10C,0.078000*%
%ADD11C,0.075000*%
%ADD12C,0.080000*%
%ADD13C,0.070000*%
%ADD14C,0.138425*%
%ADD15C,0.086000*%
%ADD16C,0.076000*%
%ADD17C,0.066000*%
%ADD18R,0.079986X0.080000*%
%ADD19R,0.061024X0.023622*%
%ADD20R,0.066000X0.066000*%
%ADD21R,0.069972X0.070000*%
%ADD22C,0.024000*%
%LNCOPPER0*%
G90*
G70*
G54D10*
X1622Y1413D03*
X1622Y1313D03*
X1622Y1213D03*
X1622Y1113D03*
X1622Y1013D03*
X522Y513D03*
X422Y513D03*
X1222Y1313D03*
X1222Y1213D03*
X2022Y213D03*
X1922Y213D03*
X1822Y213D03*
X1722Y213D03*
X1622Y213D03*
X1522Y213D03*
G54D11*
X2622Y1113D03*
X2622Y1513D03*
G54D12*
X3122Y1813D03*
X3122Y2013D03*
G54D13*
X4065Y1683D03*
G54D14*
X3715Y1683D03*
G54D13*
X3865Y1683D03*
G54D14*
X3715Y1183D03*
G54D15*
X4048Y1233D03*
G54D13*
X3965Y1683D03*
G54D14*
X4515Y1183D03*
X4515Y1683D03*
G54D13*
X4365Y1683D03*
G54D15*
X4186Y1233D03*
G54D13*
X4265Y1683D03*
X4165Y1683D03*
G54D16*
X2322Y2213D03*
X2022Y2713D03*
G54D14*
X2572Y2713D03*
G54D16*
X2222Y2713D03*
X2122Y2213D03*
G54D14*
X2572Y2213D03*
G54D16*
X2322Y2713D03*
X2122Y2713D03*
X2022Y2213D03*
X2222Y2213D03*
G54D14*
X1772Y2713D03*
X1772Y2213D03*
G54D17*
X2622Y313D03*
X2322Y313D03*
X2422Y313D03*
X2522Y313D03*
G54D13*
X222Y2413D03*
X222Y2313D03*
X222Y2213D03*
X222Y2113D03*
X222Y2013D03*
X222Y1913D03*
X222Y1813D03*
X222Y1713D03*
X222Y1613D03*
X222Y1513D03*
X222Y1413D03*
X222Y1313D03*
X222Y1213D03*
X222Y1113D03*
X222Y1013D03*
X822Y2413D03*
X822Y2313D03*
X822Y2213D03*
X822Y2113D03*
X822Y2013D03*
X822Y1913D03*
X822Y1813D03*
X822Y1713D03*
X822Y1613D03*
X822Y1513D03*
X822Y1413D03*
X822Y1313D03*
X822Y1213D03*
X822Y1113D03*
X822Y1013D03*
G54D18*
X3122Y1813D03*
G54D19*
X3819Y1492D03*
X3819Y1452D03*
X3819Y1413D03*
X3819Y1373D03*
X4409Y1373D03*
X4409Y1413D03*
X4409Y1452D03*
X4409Y1492D03*
X2023Y2443D03*
X2223Y2443D03*
X2023Y2483D03*
X2023Y2522D03*
X2423Y2404D03*
X2223Y2522D03*
X2423Y2443D03*
X2423Y2483D03*
X2423Y2522D03*
X2623Y2404D03*
X2223Y2483D03*
X2623Y2443D03*
X2623Y2483D03*
X2623Y2522D03*
X1823Y2404D03*
X1823Y2443D03*
X1823Y2483D03*
X1823Y2522D03*
X2223Y2404D03*
X2023Y2404D03*
G54D20*
X2322Y313D03*
G54D21*
X222Y2413D03*
G54D22*
X1622Y1332D02*
X1622Y1394D01*
D02*
X1622Y1232D02*
X1622Y1294D01*
D02*
X1622Y1132D02*
X1622Y1194D01*
D02*
X1622Y1032D02*
X1622Y1094D01*
G04 End of Copper0*
M02*